<svg width="36" height="36" viewBox="0 0 48 48" fill="none" xmlns="http://www.w3.org/2000/svg">
<path d="M12 12C12 10.8954 12.8954 10 14 10H34C35.1046 10 36 10.8954 36 12C36 13.1046 35.1046 14 34 14H14C12.8954 14 12 13.1046 12 12Z" fill="#176B87"/>
<path d="M12 20C12 18.8954 12.8954 18 14 18H34C35.1046 18 36 18.8954 36 20C36 21.1046 35.1046 22 34 22H14C12.8954 22 12 21.1046 12 20Z" fill="#176B87"/>
<path d="M14 26C12.8954 26 12 26.8954 12 28C12 29.1046 12.8954 30 14 30H34C35.1046 30 36 29.1046 36 28C36 26.8954 35.1046 26 34 26H14Z" fill="#176B87"/>
<path d="M12 36C12 34.8954 12.8954 34 14 34H22C23.1046 34 24 34.8954 24 36C24 37.1046 23.1046 38 22 38H14C12.8954 38 12 37.1046 12 36Z" fill="#176B87"/>
<path fill-rule="evenodd" clip-rule="evenodd" d="M4 8C4 4.6863 6.6863 2 10 2H38C41.3138 2 44 4.6863 44 8V40C44 43.3138 41.3138 46 38 46H10C6.6863 46 4 43.3138 4 40V8ZM10 6H38C39.1046 6 40 6.89542 40 8V40C40 41.1046 39.1046 42 38 42H10C8.89544 42 8 41.1046 8 40V8C8 6.89544 8.89542 6 10 6Z" fill="#176B87"/>
</svg>
