<svg width="30" height="30" viewBox="0 0 30 30" fill="none" xmlns="http://www.w3.org/2000/svg">
<path fill-rule="evenodd" clip-rule="evenodd" d="M15 30C23.2843 30 30 23.2843 30 15C30 6.71573 23.2843 0 15 0C6.71573 0 0 6.71573 0 15C0 23.2843 6.71573 30 15 30ZM14.0833 15C14.0833 14.5858 13.7475 14.25 13.3333 14.25C12.9191 14.25 12.5833 14.5858 12.5833 15V19.1667C12.5833 19.5809 12.9191 19.9167 13.3333 19.9167C13.7475 19.9167 14.0833 19.5809 14.0833 19.1667V15ZM16.6667 14.25C17.0809 14.25 17.4167 14.5858 17.4167 15V19.1667C17.4167 19.5809 17.0809 19.9167 16.6667 19.9167C16.2525 19.9167 15.9167 19.5809 15.9167 19.1667V15C15.9167 14.5858 16.2525 14.25 16.6667 14.25ZM8.33333 10.0833C7.91912 10.0833 7.58333 10.4191 7.58333 10.8333C7.58333 11.2475 7.91912 11.5833 8.33333 11.5833L12.5 11.5833H17.5L21.6667 11.5833C22.0809 11.5833 22.4167 11.2475 22.4167 10.8333C22.4167 10.4191 22.0809 10.0833 21.6667 10.0833H18.25V9.16667C18.25 7.83199 17.1681 6.75 15.8333 6.75H14.1667C12.832 6.75 11.75 7.83198 11.75 9.16667V10.0833H8.33333ZM13.25 10.0833V9.16667C13.25 8.66041 13.6604 8.25 14.1667 8.25H15.8333C16.3396 8.25 16.75 8.6604 16.75 9.16667V10.0833H13.25ZM10 12.5833C10.4142 12.5833 10.75 12.9191 10.75 13.3333V20C10.75 20.9665 11.5335 21.75 12.5 21.75H17.5C18.4665 21.75 19.25 20.9665 19.25 20V13.3333C19.25 12.9191 19.5858 12.5833 20 12.5833C20.4142 12.5833 20.75 12.9191 20.75 13.3333V20C20.75 21.795 19.295 23.25 17.5 23.25H12.5C10.7051 23.25 9.25 21.795 9.25 20V13.3333C9.25 12.9191 9.58579 12.5833 10 12.5833Z" fill="#04364A"/>
</svg>
