<svg width="24" height="24" viewBox="0 0 24 24" fill="none" xmlns="http://www.w3.org/2000/svg">
<path d="M6.9948 7.00639C6.60427 7.39692 6.60427 8.03008 6.9948 8.42061L10.5799 12.0057L6.9948 15.5909C6.60427 15.9814 6.60427 16.6146 6.9948 17.0051C7.38532 17.3956 8.01849 17.3956 8.40901 17.0051L11.9941 13.4199L15.5793 17.0051C15.9698 17.3956 16.603 17.3956 16.9935 17.0051C17.384 16.6146 17.384 15.9814 16.9935 15.5909L13.4083 12.0057L16.9935 8.42062C17.384 8.0301 17.384 7.39693 16.9935 7.00641C16.6029 6.61588 15.9698 6.61588 15.5793 7.00641L11.9941 10.5915L8.40901 7.00639C8.01849 6.61587 7.38532 6.61587 6.9948 7.00639Z" fill="#04364A"/>
</svg>
