<svg width="48" height="48" viewBox="0 0 48 48" fill="none" xmlns="http://www.w3.org/2000/svg">
<path fill-rule="evenodd" clip-rule="evenodd" d="M32 18C32 22.4182 28.4182 26 24 26C19.5817 26 16 22.4182 16 18C16 13.5817 19.5817 10 24 10C28.4182 10 32 13.5817 32 18ZM28 18C28 20.2092 26.2092 22 24 22C21.7908 22 20 20.2092 20 18C20 15.7909 21.7908 14 24 14C26.2092 14 28 15.7909 28 18Z" fill="#04364A"/>
<path fill-rule="evenodd" clip-rule="evenodd" d="M24 2C11.8497 2 2 11.8497 2 24C2 36.1502 11.8497 46 24 46C36.1502 46 46 36.1502 46 24C46 11.8497 36.1502 2 24 2ZM6 24C6 28.1804 7.4251 32.028 9.81596 35.0834C13.1049 30.7778 18.2925 28 24.129 28C29.8896 28 35.0184 30.7062 38.313 34.9166C40.626 31.8886 42 28.1048 42 24C42 14.0589 33.9412 6 24 6C14.0589 6 6 14.0589 6 24ZM24 42C19.6995 42 15.7513 40.4918 12.6553 37.9756C15.187 34.3624 19.3821 32 24.129 32C28.8168 32 32.9666 34.3042 35.5076 37.8418C32.3878 40.4382 28.3762 42 24 42Z" fill="#04364A"/>
</svg>
