<svg width="24" height="25" viewBox="0 0 24 25" fill="none" xmlns="http://www.w3.org/2000/svg">
<path d="M9.00012 21.2499H6.00012C5.65336 21.2647 5.30709 21.2109 4.98113 21.0917C4.65517 20.9725 4.35592 20.7902 4.1005 20.5552C3.84507 20.3202 3.63849 20.0371 3.49258 19.7222C3.34666 19.4073 3.26427 19.0667 3.25012 18.7199V6.27994C3.26427 5.93316 3.34666 5.59256 3.49258 5.27765C3.63849 4.96274 3.84507 4.67969 4.1005 4.4447C4.35592 4.20971 4.65517 4.02739 4.98113 3.90818C5.30709 3.78896 5.65336 3.73519 6.00012 3.74994H9.00012C9.19903 3.74994 9.3898 3.82896 9.53045 3.96961C9.6711 4.11027 9.75012 4.30103 9.75012 4.49994C9.75012 4.69886 9.6711 4.88962 9.53045 5.03027C9.3898 5.17093 9.19903 5.24994 9.00012 5.24994H6.00012C5.70319 5.22412 5.40772 5.31359 5.17499 5.49977C4.94225 5.68596 4.79011 5.95459 4.75012 6.24994V18.7199C4.79011 19.0153 4.94225 19.2839 5.17499 19.4701C5.40772 19.6563 5.70319 19.7458 6.00012 19.7199H9.00012C9.19903 19.7199 9.3898 19.799 9.53045 19.9396C9.6711 20.0803 9.75012 20.271 9.75012 20.4699C9.75012 20.6689 9.6711 20.8596 9.53045 21.0003C9.3898 21.1409 9.19903 21.2199 9.00012 21.2199V21.2499Z" fill="#04364A"/>
<path d="M16.0002 17.2499C15.9017 17.2504 15.804 17.2312 15.713 17.1934C15.622 17.1556 15.5394 17.1 15.4702 17.0299C15.3298 16.8893 15.2509 16.6987 15.2509 16.4999C15.2509 16.3012 15.3298 16.1105 15.4702 15.9699L18.9402 12.4999L15.4702 9.02991C15.3965 8.96125 15.3374 8.87845 15.2964 8.78645C15.2554 8.69445 15.2334 8.59513 15.2316 8.49443C15.2298 8.39373 15.2484 8.2937 15.2861 8.20031C15.3238 8.10692 15.3799 8.02209 15.4512 7.95087C15.5224 7.87965 15.6072 7.82351 15.7006 7.78579C15.794 7.74807 15.894 7.72954 15.9947 7.73132C16.0954 7.73309 16.1947 7.75514 16.2867 7.79613C16.3787 7.83712 16.4615 7.89622 16.5302 7.96991L20.5302 11.9699C20.6707 12.1105 20.7495 12.3012 20.7495 12.4999C20.7495 12.6987 20.6707 12.8893 20.5302 13.0299L16.5302 17.0299C16.461 17.1 16.3784 17.1556 16.2874 17.1934C16.1964 17.2312 16.0987 17.2504 16.0002 17.2499Z" fill="#04364A"/>
<path d="M20 13.25H9C8.80109 13.25 8.61032 13.171 8.46967 13.0303C8.32902 12.8897 8.25 12.6989 8.25 12.5C8.25 12.3011 8.32902 12.1103 8.46967 11.9697C8.61032 11.829 8.80109 11.75 9 11.75H20C20.1989 11.75 20.3897 11.829 20.5303 11.9697C20.671 12.1103 20.75 12.3011 20.75 12.5C20.75 12.6989 20.671 12.8897 20.5303 13.0303C20.3897 13.171 20.1989 13.25 20 13.25Z" fill="#04364A"/>
</svg>
